<?xml version="1.0" standalone="no"?>
<!DOCTYPE svg PUBLIC "-//W3C//DTD SVG 20010904//EN"
 "http://www.w3.org/TR/2001/REC-SVG-20010904/DTD/svg10.dtd">
<svg version="1.0" xmlns="http://www.w3.org/2000/svg"
 width="598.000000pt" height="239.000000pt" viewBox="0 0 598.000000 239.000000"
 preserveAspectRatio="xMidYMid meet">

<g transform="translate(0.000000,239.000000) scale(0.100000,-0.100000)"
fill="#000000" stroke="none">
<path d="M5066 2364 c-9 -8 -16 -19 -16 -23 0 -4 -26 -18 -57 -31 -103 -41
-167 -83 -244 -160 -42 -42 -81 -86 -88 -98 -11 -21 -10 -22 25 -16 25 4 40 1
46 -8 7 -9 8 -7 5 8 -5 22 6 26 31 11 6 -5 30 -9 53 -9 34 0 40 -3 36 -18 -3
-14 -1 -17 11 -12 9 3 -16 -54 -62 -144 -138 -263 -281 -503 -420 -707 -45
-65 -88 -130 -96 -145 -41 -70 -54 -98 -52 -105 1 -5 -2 -6 -7 -3 -5 3 -36
-29 -69 -72 -33 -43 -67 -84 -76 -91 -18 -15 -22 -36 -4 -25 7 4 8 3 4 -5 -4
-6 -11 -9 -15 -7 -11 7 -64 -50 -57 -62 3 -5 -7 -20 -22 -33 l-27 -24 25 30
c13 17 -12 -5 -55 -47 -44 -43 -84 -78 -87 -78 -10 0 -51 135 -88 283 -41 165
-43 169 -75 157 -32 -12 -38 -12 -32 -2 3 4 -25 6 -61 5 -43 -2 -69 2 -74 10
-36 52 118 -520 156 -582 6 -9 -52 -61 -67 -61 -7 0 -67 85 -67 94 0 3 5 6 10
6 6 0 10 -7 10 -15 0 -8 7 -15 15 -15 8 0 15 5 15 11 0 5 -4 7 -10 4 -5 -3
-10 1 -10 10 0 11 -7 15 -22 13 -20 -3 -30 12 -79 109 -96 188 -156 359 -415
1180 -5 16 -4 16 8 3 10 -11 37 -15 116 -15 l103 0 -6 25 c-12 46 -96 231
-138 303 -51 88 -195 236 -257 265 -159 75 -345 66 -559 -27 -47 -20 -122 -60
-167 -87 l-80 -51 -68 64 c-41 38 -98 78 -143 100 -63 31 -87 37 -159 41 -74
4 -94 1 -160 -23 -266 -97 -468 -351 -814 -1023 -35 -67 -65 -120 -67 -118 -3
2 3 18 11 35 14 27 14 30 1 25 -8 -4 -15 -1 -15 5 0 9 -5 9 -20 1 -16 -8 -18
-8 -14 4 7 17 39 27 51 15 4 -4 8 5 8 20 1 20 -3 27 -12 24 -7 -3 -13 -11 -13
-19 0 -8 -4 -14 -10 -14 -9 0 -4 25 10 45 10 15 20 45 15 45 -9 0 -73 -136
-125 -265 -67 -165 -202 -589 -229 -720 -27 -128 -60 -343 -53 -350 9 -8 241
-5 336 5 169 17 302 115 396 288 25 45 110 198 189 339 79 142 145 262 147
268 6 16 -233 10 -253 -7 -20 -16 14 45 124 219 235 372 474 665 711 870 109
96 96 95 132 1 40 -102 39 -102 53 -86 23 26 72 64 57 44 -13 -18 -13 -19 1
-14 20 8 82 -111 163 -311 29 -72 58 -127 66 -129 35 -9 110 -6 110 3 1 23 39
-65 131 -307 175 -458 249 -622 354 -784 64 -99 169 -211 237 -255 l51 -33
-35 -12 c-84 -29 -109 -27 -187 12 -95 47 -187 138 -270 264 l-62 95 -105 0
c-104 0 -105 0 -99 -23 3 -12 20 -46 37 -75 86 -141 166 -219 283 -274 l60
-28 706 0 707 0 93 47 c118 60 230 155 353 298 112 132 216 273 216 294 0 14
-27 15 -50 1 -19 -11 -10 4 78 147 49 79 107 177 130 218 l41 75 -29 0 c-16 1
-26 -3 -24 -7 3 -5 9 -6 14 -3 5 3 11 1 15 -4 5 -10 -33 -7 -42 3 -3 3 -16 1
-29 -4 -13 -5 -23 -6 -22 -2 3 15 -15 42 -24 36 -6 -4 -5 -10 3 -16 10 -7 5
-8 -13 -4 -21 5 -28 2 -28 -8 0 -8 -4 -17 -10 -21 -5 -3 -5 7 1 25 6 16 15 28
19 25 5 -3 8 3 8 12 -2 36 310 682 491 1016 50 93 91 171 91 173 0 2 -114 4
-254 4 -218 0 -257 -2 -270 -16z m-172 -318 c-9 -15 -19 -25 -21 -22 -5 5 30
56 35 51 2 -2 -4 -15 -14 -29z m-4264 -975 c-28 -56 -35 -52 -8 4 12 24 23 43
26 41 2 -2 -6 -22 -18 -45z m3587 -233 c-3 -8 -6 -5 -6 6 -1 11 2 17 5 13 3
-3 4 -12 1 -19z m-47 -133 c-23 -58 -44 -105 -46 -102 -2 2 15 51 38 110 22
59 43 105 45 103 2 -2 -14 -52 -37 -111z m-119 -282 c-34 -65 -70 -129 -80
-143 l-20 -25 -40 86 c-23 48 -41 91 -40 95 0 5 18 -29 40 -76 l40 -85 20 25
c11 14 45 76 76 138 31 61 58 110 60 108 3 -2 -23 -58 -56 -123z m-184 35 c-3
-8 -6 -5 -6 6 -1 11 2 17 5 13 3 -3 4 -12 1 -19z"/>
<path d="M4653 2020 c-13 -5 -23 -11 -23 -14 0 -8 30 0 42 12 14 14 11 14 -19
2z"/>
<path d="M710 1420 c-6 -11 -8 -20 -6 -20 3 0 10 9 16 20 6 11 8 20 6 20 -3 0
-10 -9 -16 -20z"/>
<path d="M705 1279 c-11 -17 1 -21 15 -4 8 9 8 15 2 15 -6 0 -14 -5 -17 -11z"/>
<path d="M5191 1214 c-12 -20 -20 -39 -17 -41 2 -3 14 13 26 36 25 51 20 54
-9 5z"/>
<path d="M3620 385 c-7 -14 -19 -25 -27 -25 -17 0 -17 -11 1 -35 13 -18 15
-18 46 8 28 24 29 27 11 27 -13 0 -21 6 -21 18 0 14 2 15 10 2 5 -8 11 -12 14
-10 2 3 -1 13 -8 22 -12 16 -14 16 -26 -7z"/>
<path d="M240 290 c-6 -11 -8 -20 -6 -20 3 0 10 9 16 20 6 11 8 20 6 20 -3 0
-10 -9 -16 -20z"/>
<path d="M160 140 c-6 -11 -8 -20 -6 -20 3 0 10 9 16 20 6 11 8 20 6 20 -3 0
-10 -9 -16 -20z"/>
</g>
</svg>
