<?xml version="1.0" encoding="UTF-8"?>
<!DOCTYPE svg PUBLIC "-//W3C//DTD SVG 1.1//EN" "http://www.w3.org/Graphics/SVG/1.1/DTD/svg11.dtd">
<!-- Creator: CorelDRAW 2020 (64-Bit) -->
<svg xmlns="http://www.w3.org/2000/svg" xml:space="preserve" width="340px" height="340px" version="1.1" shape-rendering="geometricPrecision" text-rendering="geometricPrecision" image-rendering="optimizeQuality" fill-rule="evenodd" clip-rule="evenodd"
viewBox="0 0 340 340"
 xmlns:xlink="http://www.w3.org/1999/xlink"
 xmlns:xodm="http://www.corel.com/coreldraw/odm/2003">
 <g id="Layer_x0020_1">
  <metadata id="CorelCorpID_0Corel-Layer"/>
  <path id="database-solid.svg" fill="#056DFF" fill-rule="nonzero" d="M272.182 68.841l0 46.894c0,20.14 -45.704,36.453 -102.07,36.453 -56.365,0 -102.069,-16.313 -102.069,-36.453l0 -46.894c0,-20.131 45.704,-36.453 102.069,-36.453 56.366,0 102.07,16.322 102.07,36.453zm-102.07 -34.356c-53.498,0 -96.866,15.865 -96.866,35.436 0,19.57 43.368,35.435 96.866,35.435 53.498,0 96.866,-15.865 96.866,-35.435 0,-19.571 -43.368,-35.436 -96.866,-35.436zm77.099 120.756c9.068,-3.372 18.181,-7.701 24.971,-13.032l0 46.432c0,20.141 -45.704,36.454 -102.07,36.454 -56.365,0 -102.069,-16.313 -102.069,-36.454l0 -46.432c6.803,5.331 15.502,9.66 24.993,13.032 20.418,7.291 47.686,11.529 77.076,11.529 29.391,0 56.64,-4.238 77.099,-11.529l0 0zm-154.175 72.907c20.418,7.29 47.686,11.528 77.076,11.528 29.391,0 56.64,-4.238 77.099,-11.528 9.068,-3.372 18.181,-7.701 24.971,-13.032l0 39.142c0,20.14 -45.704,36.453 -102.07,36.453 -56.365,0 -102.069,-16.313 -102.069,-36.453l0 -39.142c6.803,5.331 15.502,9.66 24.993,13.032z"/>
  <path fill="#8090A8" fill-rule="nonzero" d="M140.741 72.148c0.874,1.802 1.06,3.412 0.535,4.852 -0.526,1.44 -1.576,2.689 -3.167,3.73 -1.611,1.055 -3.647,1.891 -6.156,2.535 -2.513,0.644 -5.37,1.063 -8.507,1.262 -2.114,0.135 -4.132,0.158 -6.053,0.07 -1.918,-0.089 -3.637,-0.232 -5.178,-0.429 -1.533,-0.197 -2.829,-0.416 -3.919,-0.671 -1.103,-0.259 -1.891,-0.486 -2.422,-0.7 -0.511,-0.207 -0.955,-0.537 -1.331,-0.972 -0.376,-0.434 -0.721,-1.065 -1.09,-1.898 -0.248,-0.561 -0.425,-1.025 -0.536,-1.408 -0.11,-0.383 -0.133,-0.693 -0.092,-0.944 0.038,-0.233 0.153,-0.417 0.337,-0.528 0.198,-0.119 0.464,-0.18 0.779,-0.2 0.443,-0.026 1.149,0.09 2.087,0.339 0.944,0.249 2.14,0.511 3.557,0.79 1.436,0.283 3.118,0.52 4.996,0.709 1.901,0.19 4.001,0.218 6.293,0.077 1.532,-0.094 2.834,-0.272 3.942,-0.552 1.093,-0.278 1.979,-0.625 2.646,-1.053 0.659,-0.421 1.066,-0.915 1.247,-1.49 0.18,-0.57 0.117,-1.194 -0.198,-1.866 -0.364,-0.775 -1.037,-1.423 -2.047,-1.933 -1.02,-0.514 -2.215,-0.945 -3.625,-1.304 -1.411,-0.361 -2.979,-0.694 -4.676,-0.985 -1.695,-0.289 -3.47,-0.594 -5.297,-0.922 -1.827,-0.328 -3.635,-0.721 -5.398,-1.169 -1.772,-0.449 -3.447,-1.008 -4.989,-1.683 -1.561,-0.682 -2.938,-1.494 -4.152,-2.478 -1.188,-0.964 -2.104,-2.161 -2.727,-3.567 -0.713,-1.612 -0.802,-3.049 -0.263,-4.323 0.534,-1.26 1.53,-2.337 2.998,-3.224 1.465,-0.886 3.314,-1.588 5.588,-2.102 2.258,-0.511 4.774,-0.839 7.504,-0.975 1.4,-0.07 2.829,-0.068 4.3,-0.022 1.465,0.044 2.846,0.13 4.172,0.274 1.317,0.144 2.488,0.311 3.559,0.52 1.063,0.208 1.78,0.384 2.182,0.544 0.359,0.142 0.642,0.28 0.805,0.391 0.157,0.109 0.327,0.267 0.507,0.462 0.174,0.187 0.334,0.428 0.505,0.727 0.17,0.294 0.355,0.656 0.566,1.098 0.233,0.488 0.418,0.902 0.537,1.242 0.121,0.343 0.179,0.628 0.179,0.857 0,0.225 -0.099,0.4 -0.236,0.504 -0.149,0.111 -0.39,0.183 -0.742,0.201 -0.309,0.016 -0.902,-0.079 -1.762,-0.278 -0.842,-0.194 -1.867,-0.41 -3.087,-0.638 -1.2,-0.225 -2.558,-0.407 -4.083,-0.562 -1.532,-0.157 -3.118,-0.197 -4.819,-0.109 -1.335,0.069 -2.445,0.225 -3.36,0.455 -0.902,0.228 -1.603,0.521 -2.12,0.871 -0.517,0.35 -0.851,0.754 -0.971,1.218 -0.12,0.463 -0.071,0.952 0.155,1.448 0.338,0.742 1.012,1.367 1.979,1.869 0.984,0.509 2.196,0.948 3.608,1.302 1.42,0.355 3.005,0.672 4.735,0.96 1.728,0.288 3.486,0.599 5.292,0.921 1.809,0.322 3.604,0.711 5.401,1.157 1.797,0.446 3.473,0.994 5.032,1.664 1.56,0.671 2.947,1.489 4.163,2.447 1.229,0.968 2.154,2.121 2.817,3.489zm74.313 9.281c0.343,0.626 0.571,1.139 0.674,1.526 0.104,0.394 0.14,0.699 0.07,0.918 -0.074,0.227 -0.184,0.374 -0.352,0.451 -0.166,0.076 -0.384,0.115 -0.629,0.131 -0.983,0.064 -2.357,-0.007 -4.131,-0.219 -1.76,-0.21 -3.736,-0.555 -5.907,-1.025 -2.174,-0.471 -4.448,-1.073 -6.823,-1.797 -2.405,-0.732 -4.725,-1.587 -6.962,-2.591 -1.201,0.458 -2.688,0.881 -4.541,1.282 -1.816,0.394 -3.933,0.671 -6.364,0.825 -4.604,0.292 -8.779,0.201 -12.544,-0.263 -3.79,-0.467 -7.21,-1.344 -10.227,-2.639 -2.985,-1.282 -5.62,-3 -7.843,-5.131 -2.229,-2.135 -4.09,-4.706 -5.558,-7.7 -1.325,-2.707 -1.888,-5.166 -1.726,-7.378 0.161,-2.193 1.057,-4.09 2.708,-5.684 1.647,-1.591 4.006,-2.86 7.09,-3.816 3.067,-0.952 6.87,-1.554 11.42,-1.782 4.27,-0.213 8.191,-0.076 11.791,0.401 3.606,0.478 6.866,1.32 9.82,2.535 2.935,1.208 5.535,2.807 7.79,4.788 2.257,1.984 4.169,4.388 5.702,7.21 0.798,1.468 1.384,2.867 1.759,4.181 0.378,1.322 0.539,2.557 0.493,3.705 -0.047,1.158 -0.296,2.221 -0.741,3.22 -0.438,0.983 -1.092,1.878 -1.913,2.665 2.369,0.827 4.36,1.436 6.06,1.838 1.687,0.399 3.108,0.694 4.206,0.879 1.109,0.186 1.984,0.312 2.62,0.39 0.64,0.077 1.16,0.201 1.582,0.36 0.439,0.165 0.844,0.452 1.235,0.892 0.384,0.432 0.807,1.037 1.241,1.828zm-28.543 -18.923c-0.911,-1.714 -1.983,-3.252 -3.199,-4.628 -1.212,-1.371 -2.638,-2.524 -4.291,-3.453 -1.661,-0.933 -3.574,-1.62 -5.746,-2.063 -2.165,-0.442 -4.658,-0.591 -7.497,-0.444 -2.869,0.15 -5.117,0.58 -6.736,1.285 -1.622,0.707 -2.795,1.601 -3.468,2.693 -0.674,1.092 -0.897,2.351 -0.696,3.762 0.203,1.425 0.688,2.897 1.47,4.448 0.926,1.839 1.998,3.489 3.228,4.936 1.23,1.447 2.668,2.656 4.355,3.644 1.671,0.978 3.616,1.684 5.845,2.118 2.209,0.431 4.789,0.559 7.711,0.382 2.936,-0.178 5.191,-0.65 6.795,-1.395 1.617,-0.751 2.751,-1.684 3.382,-2.832 0.626,-1.137 0.792,-2.428 0.52,-3.89 -0.27,-1.445 -0.829,-2.972 -1.673,-4.563zm61.352 10.602c0.295,0.503 0.508,0.94 0.641,1.293 0.135,0.36 0.184,0.651 0.178,0.888 -0.008,0.25 -0.097,0.423 -0.253,0.535 -0.158,0.113 -0.367,0.193 -0.655,0.21 -8.556,0.538 -17.156,1.084 -25.813,1.632 -0.963,0.061 -1.877,-0.058 -2.727,-0.356 -0.848,-0.297 -1.484,-0.825 -1.907,-1.587 -2.8,-5.052 -5.589,-10.057 -8.334,-15.007 -2.719,-4.903 -5.429,-9.771 -8.099,-14.583 -0.087,-0.158 -0.094,-0.317 0.021,-0.454 0.119,-0.142 0.376,-0.259 0.75,-0.364 0.373,-0.106 0.943,-0.195 1.644,-0.281 0.7,-0.085 1.596,-0.157 2.66,-0.21 1.106,-0.056 2.06,-0.077 2.788,-0.063 0.728,0.013 1.351,0.042 1.831,0.105 0.468,0.062 0.835,0.156 1.088,0.271 0.272,0.123 0.441,0.267 0.53,0.424 2.404,4.24 4.821,8.524 7.268,12.831 2.472,4.35 4.965,8.739 7.472,13.164 5.869,-0.359 11.739,-0.718 17.581,-1.075 0.285,-0.017 0.568,0.017 0.827,0.098 0.269,0.084 0.538,0.221 0.812,0.424 0.277,0.205 0.542,0.47 0.825,0.825 0.274,0.341 0.571,0.768 0.872,1.28z"/>
 </g>
</svg>
